{
    "asset" : {
        "generator" : "Khronos glTF Blender I/O v1.7.33",
        "version" : "2.0"
    },
    "scene" : 0,
    "scenes" : [
        {
            "name" : "Scene",
            "nodes" : [
                0
            ]
        }
    ],
    "nodes" : [
        {
            "mesh" : 0,
            "name" : "Tube001",
            "rotation" : [
                0.7308467626571655,
                0,
                0,
                0.6825416684150696
            ],
            "translation" : [
                -0.03171328827738762,
                0.002912193536758423,
                -0.03805423155426979
            ]
        }
    ],
    "meshes" : [
        {
            "name" : "\u7f51\u683c.009",
            "primitives" : [
                {
                    "attributes" : {
                        "POSITION" : 0,
                        "NORMAL" : 1,
                        "TEXCOORD_0" : 2
                    },
                    "indices" : 3
                }
            ]
        }
    ],
    "accessors" : [
        {
            "bufferView" : 0,
            "componentType" : 5126,
            "count" : 304,
            "max" : [
                4.759429931640625,
                119.35504150390625,
                4.832851409912109
            ],
            "min" : [
                -4.759429931640625,
                0,
                -9.157917976379395
            ],
            "type" : "VEC3"
        },
        {
            "bufferView" : 1,
            "componentType" : 5126,
            "count" : 304,
            "type" : "VEC3"
        },
        {
            "bufferView" : 2,
            "componentType" : 5126,
            "count" : 304,
            "type" : "VEC2"
        },
        {
            "bufferView" : 3,
            "componentType" : 5123,
            "count" : 1296,
            "type" : "SCALAR"
        }
    ],
    "bufferViews" : [
        {
            "buffer" : 0,
            "byteLength" : 3648,
            "byteOffset" : 0
        },
        {
            "buffer" : 0,
            "byteLength" : 3648,
            "byteOffset" : 3648
        },
        {
            "buffer" : 0,
            "byteLength" : 2432,
            "byteOffset" : 7296
        },
        {
            "buffer" : 0,
            "byteLength" : 2592,
            "byteOffset" : 9728
        }
    ],
    "buffers" : [
        {
            "byteLength" : 12320,
            "uri" : "data:application/octet-stream;base64,"
        }
    ]
}
